# xmcd
#
# Track frame offsets: 
#        150
#        19318
#        46063
#        55217
#        73496
#        84887
#        106249
#
# Disc length: 1756 seconds
#
# Revision: 0
# Processed by: cddbd v1.5.2PL0 Copyright (c) Steve Scherf et al.
# Submitted via: ExactAudioCopy v0.99pb3
#
DISCID=5606da07
DTITLE=Alabama Blues Machine - Must Be Love
DYEAR=2008
DGENRE=Blues
TTITLE0=Hindsight
TTITLE1=Must Be Love
TTITLE2=Clay's Boogie
TTITLE3=LaQuita
TTITLE4=Duble 'R' Shuffle
TTITLE5=Black Widow Baby
TTITLE6=Rockin' Me Baby
EXTD=
EXTT0=
EXTT1=
EXTT2=
EXTT3=
EXTT4=
EXTT5=
EXTT6=
PLAYORDER=
